<svg width="1454" height="213" viewBox="0 0 1454 213" fill="none" xmlns="http://www.w3.org/2000/svg">
<path fill-rule="evenodd" clip-rule="evenodd" d="M215.154 165.746L158.591 91.6462V15.3939H205.129C210.498 15.3939 215.154 19.689 215.154 25.0578V165.746ZM205.847 196.89H163.603C153.935 196.89 144.988 192.595 139.258 185.079L18.259 27.2053C14.6765 22.1927 17.8977 15.3939 24.3454 15.3939H66.2271C75.8961 15.3939 84.8424 19.689 90.5725 27.2053L211.572 185.079C215.154 190.091 211.928 196.89 205.847 196.89ZM71.2397 196.89H24.7016C19.3328 196.89 14.6765 192.595 14.6765 187.226V46.1819L71.2397 120.282V196.89ZM205.129 0H151.787C147.492 0 143.914 3.57749 143.914 7.51632V72.6697L102.384 17.8977C93.7938 6.44256 80.1911 0 66.2271 0H24.7016C11.0989 0 0 11.0989 0 24.7016V187.582C0 201.185 11.0989 212.284 24.7016 212.284H78.0436C82.3386 212.284 85.9162 209.063 85.9162 204.768V138.897L127.447 194.386C136.037 205.841 149.283 212.284 163.603 212.284H205.129C218.732 212.284 229.831 201.185 229.831 187.582V24.7016C229.831 11.0989 218.732 0 205.129 0Z" fill="white"/>
<path fill-rule="evenodd" clip-rule="evenodd" d="M513.716 194.387H479.707L395.582 97.7277V194.387H351.547V18.2593H385.2L470.043 117.417V18.2593H513.716V194.387Z" fill="white"/>
<path fill-rule="evenodd" clip-rule="evenodd" d="M560.254 119.208H611.805C610.375 106.679 599.276 97.3712 586.747 98.0887C573.856 97.7274 562.763 106.679 560.254 119.208ZM650.109 143.192V143.909H560.971C564.193 156.438 576.009 165.028 589.25 164.316C596.772 164.672 603.932 161.451 608.227 155.364H649.753C643.666 181.14 619.682 197.251 588.538 197.251C547.369 197.251 520.158 170.041 520.158 131.737C520.158 93.4324 547.007 66.2271 586.747 66.2271C623.26 66.2271 650.826 91.2849 650.826 128.877C651.183 133.884 650.826 138.54 650.109 143.192Z" fill="white"/>
<path fill-rule="evenodd" clip-rule="evenodd" d="M752.136 150.713V112.047C745.694 104.175 736.03 99.5185 726.005 99.8747C709.181 100.236 695.934 114.556 696.652 131.38C695.934 148.204 709.181 162.168 726.005 162.524C736.03 162.881 745.694 158.586 752.136 150.713ZM794.023 194.025H752.136V187.226C741.755 193.668 729.943 196.89 717.771 196.89C683.761 196.89 655.482 168.611 655.482 131.38C655.482 94.1497 683.761 65.8706 717.771 65.8706C729.943 65.8706 741.755 69.0919 752.136 75.5345V68.7306H794.023V194.025Z" fill="white"/>
<path fill-rule="evenodd" clip-rule="evenodd" d="M888.891 106.322C868.484 107.396 855.599 112.765 845.93 122.429V194.025H803.687V68.7305H845.93V82.3383C857.747 71.5956 873.14 66.2268 888.891 66.583V106.322Z" fill="white"/>
<path fill-rule="evenodd" clip-rule="evenodd" d="M1026 56.9197V18.2593H894.977V194.387H938.65V132.098H1004.52V131.381C1004.16 118.134 1007.39 105.605 1013.47 94.1502H938.65V56.9197H1026Z" fill="white"/>
<path fill-rule="evenodd" clip-rule="evenodd" d="M1237.57 106.322C1216.81 107.396 1203.92 112.765 1194.26 122.429V194.025H1152.37V68.7305H1194.26V82.3383C1206.07 71.5956 1221.46 66.2268 1237.57 66.583V106.322Z" fill="white"/>
<path fill-rule="evenodd" clip-rule="evenodd" d="M1452.73 122.429V194.025H1410.48V129.233C1410.48 111.335 1401.89 102.74 1388.29 102.74C1380.41 103.101 1373.25 107.035 1368.95 113.121C1369.31 116.342 1369.67 119.207 1369.67 122.429V194.025H1327.78V129.233C1327.78 111.335 1318.84 102.74 1305.23 102.74C1298.79 102.74 1292.7 105.961 1286.26 113.839V194.386H1244.02V68.7305H1285.9V76.2519C1294.49 68.3743 1305.59 64.0792 1317.4 64.7968C1332.08 64.0792 1346.04 70.5218 1356.07 81.6207C1367.88 70.1656 1383.99 64.0792 1400.81 64.7968C1430.53 64.7968 1453.08 86.6333 1453.08 122.429" fill="white"/>
<path fill-rule="evenodd" clip-rule="evenodd" d="M1107.62 131.736C1108.34 115.269 1095.45 101.666 1079.34 101.666C1062.88 101.666 1049.99 115.269 1050.7 131.736C1050.7 148.204 1062.16 161.807 1079.34 161.807C1096.52 161.807 1107.62 148.565 1107.62 131.736ZM1147 131.38C1147 169.684 1118.72 197.964 1078.98 197.964C1039.6 197.964 1010.96 169.684 1010.96 131.38C1010.96 93.076 1039.6 65.8706 1078.98 65.8706C1118.72 65.8706 1147 93.4321 1147 131.38Z" fill="white"/>
</svg>
